<svg width="17" height="12" viewBox="0 0 17 12" fill="none" xmlns="http://www.w3.org/2000/svg">
<path d="M1.50256 5.02569C1.07702 5.02569 0.732051 5.37066 0.732051 5.7962C0.732051 6.22175 1.07702 6.56672 1.50256 6.56672V5.02569ZM16.4629 6.34104C16.7638 6.04013 16.7638 5.55227 16.4629 5.25137L11.5594 0.347857C11.2585 0.0469532 10.7706 0.0469532 10.4697 0.347857C10.1688 0.648761 10.1688 1.13662 10.4697 1.43753L14.8284 5.7962L10.4697 10.1549C10.1688 10.4558 10.1688 10.9436 10.4697 11.2446C10.7706 11.5455 11.2585 11.5455 11.5594 11.2446L16.4629 6.34104ZM1.50256 6.56672H15.9181V5.02569H1.50256V6.56672Z" fill="black"/>
</svg>
